<svg xmlns="http://www.w3.org/2000/svg" xmlns:xlink="http://www.w3.org/1999/xlink" width="2000" zoomAndPan="magnify" viewBox="0 0 1500 1499.999933" height="2000" preserveAspectRatio="xMidYMid meet" version="1.0"><defs><g/><clipPath id="83ceab7d20"><path d="M 0 130.3125 L 982 130.3125 L 982 1370 L 0 1370 Z M 0 130.3125 " clip-rule="nonzero"/></clipPath><clipPath id="8e3ae00fac"><path d="M 0.71875 2 L 1.921875 2 L 1.921875 2.640625 L 0.71875 2.640625 Z M 0.71875 2 " clip-rule="nonzero"/></clipPath><clipPath id="266b930202"><path d="M 0.71875 1 L 1.921875 1 L 1.921875 2.640625 L 0.71875 2.640625 Z M 0.71875 1 " clip-rule="nonzero"/></clipPath><clipPath id="314da02a34"><rect x="0" width="2" y="0" height="3"/></clipPath></defs><path fill="#fae7cb" d="M 1223.621094 997 C 692.234375 958.660156 315.664062 1123.902344 0 1369.4375 C 198.667969 1271.652344 448.507812 1213.414062 720.0625 1213.414062 C 991.527344 1213.414062 1241.371094 1271.652344 1440.039062 1369.4375 Z M 1223.621094 997 " fill-opacity="1" fill-rule="evenodd"/><path fill="#ffc94d" d="M 0 1369.4375 C 315.664062 1123.902344 692.234375 958.660156 1223.621094 997 L 1500 473.277344 C 1320.714844 489.5625 1147.378906 523.675781 981.621094 580.710938 C 609.960938 708.648438 276.289062 952.199219 0 1369.4375 Z M 0 1369.4375 " fill-opacity="1" fill-rule="evenodd"/><g clip-path="url(#83ceab7d20)"><path fill="#59b292" d="M 0 1369.4375 C 276.289062 952.199219 609.960938 708.648438 981.621094 580.710938 L 720.0625 130.5625 Z M 0 1369.4375 " fill-opacity="1" fill-rule="evenodd"/></g><g transform="matrix(1, 0, 0, 1, 756, 828)"><g clip-path="url(#314da02a34)"><g clip-path="url(#8e3ae00fac)"><path fill="#000000" d="M 0.820312 2.328125 L 1.6875 2.328125 L 1.6875 2.410156 L 0.820312 2.410156 Z M 0.820312 2.328125 " fill-opacity="1" fill-rule="nonzero"/></g><g clip-path="url(#266b930202)"><g fill="#000000" fill-opacity="1"><g transform="translate(0.82157, 2.244203)"><g><path d="M 0.4375 0.015625 C 0.363281 0.015625 0.300781 0 0.25 -0.03125 C 0.195312 -0.0625 0.15625 -0.101562 0.125 -0.15625 C 0.09375 -0.21875 0.078125 -0.285156 0.078125 -0.359375 C 0.078125 -0.421875 0.09375 -0.476562 0.125 -0.53125 C 0.15625 -0.59375 0.195312 -0.640625 0.25 -0.671875 C 0.300781 -0.703125 0.363281 -0.71875 0.4375 -0.71875 C 0.5 -0.71875 0.554688 -0.703125 0.609375 -0.671875 C 0.671875 -0.640625 0.71875 -0.597656 0.75 -0.546875 C 0.78125 -0.492188 0.796875 -0.429688 0.796875 -0.359375 C 0.796875 -0.285156 0.78125 -0.21875 0.75 -0.15625 C 0.71875 -0.101562 0.671875 -0.0625 0.609375 -0.03125 C 0.554688 0 0.5 0.015625 0.4375 0.015625 Z M 0.4375 -0.046875 C 0.488281 -0.046875 0.535156 -0.0546875 0.578125 -0.078125 C 0.617188 -0.109375 0.648438 -0.144531 0.671875 -0.1875 C 0.703125 -0.238281 0.71875 -0.296875 0.71875 -0.359375 C 0.71875 -0.421875 0.703125 -0.472656 0.671875 -0.515625 C 0.648438 -0.554688 0.617188 -0.585938 0.578125 -0.609375 C 0.535156 -0.640625 0.488281 -0.65625 0.4375 -0.65625 C 0.375 -0.65625 0.320312 -0.640625 0.28125 -0.609375 C 0.238281 -0.585938 0.203125 -0.554688 0.171875 -0.515625 C 0.148438 -0.472656 0.140625 -0.421875 0.140625 -0.359375 C 0.140625 -0.296875 0.148438 -0.238281 0.171875 -0.1875 C 0.203125 -0.144531 0.238281 -0.109375 0.28125 -0.078125 C 0.320312 -0.0546875 0.375 -0.046875 0.4375 -0.046875 Z M 0.4375 -0.15625 C 0.40625 -0.15625 0.375 -0.160156 0.34375 -0.171875 C 0.320312 -0.191406 0.300781 -0.21875 0.28125 -0.25 C 0.269531 -0.28125 0.265625 -0.316406 0.265625 -0.359375 C 0.265625 -0.398438 0.269531 -0.4375 0.28125 -0.46875 C 0.300781 -0.5 0.320312 -0.519531 0.34375 -0.53125 C 0.375 -0.550781 0.40625 -0.5625 0.4375 -0.5625 C 0.476562 -0.5625 0.507812 -0.550781 0.53125 -0.53125 C 0.5625 -0.519531 0.582031 -0.5 0.59375 -0.46875 L 0.546875 -0.4375 C 0.535156 -0.457031 0.519531 -0.472656 0.5 -0.484375 C 0.488281 -0.492188 0.46875 -0.5 0.4375 -0.5 C 0.40625 -0.5 0.378906 -0.488281 0.359375 -0.46875 C 0.335938 -0.445312 0.328125 -0.410156 0.328125 -0.359375 C 0.328125 -0.304688 0.335938 -0.269531 0.359375 -0.25 C 0.378906 -0.226562 0.40625 -0.21875 0.4375 -0.21875 C 0.46875 -0.21875 0.488281 -0.222656 0.5 -0.234375 C 0.519531 -0.242188 0.535156 -0.257812 0.546875 -0.28125 L 0.609375 -0.265625 C 0.585938 -0.222656 0.5625 -0.191406 0.53125 -0.171875 C 0.507812 -0.160156 0.476562 -0.15625 0.4375 -0.15625 Z M 0.4375 -0.15625 "/></g></g></g></g></g></g></svg>